<?xml version="1.0" encoding="utf-8"?>
<!-- Generator: Adobe Illustrator 23.0.2, SVG Export Plug-In . SVG Version: 6.00 Build 0)  -->
<svg version="1.1" id="Layer_1" xmlns="http://www.w3.org/2000/svg" xmlns:xlink="http://www.w3.org/1999/xlink" x="0px" y="0px"
	 viewBox="0 0 763.8 461.4" style="enable-background:new 0 0 763.8 461.4;" xml:space="preserve">
<style type="text/css">
	.st0{fill:#00FFFF;}
</style>
<title  id="ea-logo">Evander Industries</title>
<desc  id="logo-desc">Logo for Evander Industries</desc>
<path class="st0" d="M721.1,332.3c-22.5-18.1-43.7-35.3-35.5-80c7.9-43.2,43.1-79.8,46.8-83.7l21.1-7.6l-2-5.6l-93.9,33.8
	l-41.9-44.4c0.2-0.6,0.8-1.6,1.2-2.3c2.8-5.2,7.9-14.9-6.1-24.9c-15-10.7-19.3-11.5-21.9-9.3c-1.5,1.4-1.7,3.7-0.5,6l41.1,85
	l-37.2,13.4L573.9,175l22.1-6.1l-1.6-5.8l-23.2,6.4L542.6,111l25.1-13.2l-2.8-5.3l-30.3,15.9l52,106.2l-33.7,12.1
	c2.4-7.3,2.8-24.9-13.7-65.8c-23.8-58.9-60.1-58.8-61.6-58.8l-5,0.1l72.6,127.3l-16.3,5.9l-85.1-136l-5.1,3.2l66.5,106.3L389,78.5
	l87.6,175.6l-17.7,6.4L318.2,77.6l59.4,212.1l-40.5,14.5L273.7,83l-5.8,1.7l58.5,203.9L176.5,71.2l-4.9,3.4l159.8,231.7l-185.8,66.8
	l-68.7-153l85.4-37.1l-2.4-5.5l-85.5,37.2L7.6,65.8L102,5l-3.2-5L0,63.5l139.9,311.6L38.1,411.7l2,5.6l54.2-19.5l17.9,49.2
	l-11.9-0.1l-0.1,6l33.3,0.4l0.1-6l-15-0.2L100,395.9l52.9-19l5.7,77.8l6-0.4l-5-68.8l53.4,76L205,358.1l20.7-7.5l50.6,103.9l0.3,1.4
	l1.7,0.5c0.5,0.2,0.9,0.2,1.4,0.1c1-0.2,2.6-1,5.2-3.6c6.1-6.1,19-24.6,7-63.2c-8.2-26.3-19.9-42.3-35-47.5
	c-1.4-0.5-2.8-0.9-4.3-1.2l37-13.3c3,10.5,32.6,110,62.2,123.6c3.1,1.5,6.5,2,9.9,1.4c1.2-0.2,2.5-0.6,3.6-1.2
	c14.7-6.8,20.3-35.1,16.7-84.1c-1.9-23.3-5-46.5-9.3-69.5l33.4-12c-2.1,2.5-3.9,5.3-5.3,8.2c-5,10.4-4.8,22.5,0.5,36.1
	c5,13,13,17.6,20.6,22c10.7,6.1,21.8,12.5,28.2,44.2c6.1,30.3-28.6,53.2-29,53.5l0,0l1.6,2.5l1.6,2.5c6.8-4.7,13-10.3,18.3-16.6
	c11.6-13.9,16.2-28.8,13.3-43.1c-6.9-34.3-19.8-41.7-31.1-48.2c-7.4-4.2-13.7-7.9-18-18.9c-4.6-12-4.9-22.5-0.7-31.3
	c4.5-9.5,13.1-14.9,18.3-17.4l26.4-9.5l34.4,178.8l5.9-1.1l-34.6-179.7l44.4-16c0,0.1,0,0.2,0,0.4l40.2,203.7l5.9-1.2l-22.1-112
	l67.2,112.5l5.2-3.1L525,330.8c8.6-2.4,16.1-7.8,21.1-15.3c7.5-11.5,8.4-27.2,2.7-46.8c-3.5-11.8-9.3-19.8-17.3-23.7
	c-1.9-0.9-3.9-1.6-5.9-2l36-12.9l53.1,217.6l-6.9-0.5l-0.5,6l22.7,1.7l0.5-6l-9.5-0.7L567.2,228l23.6-8.5l81.4,230.2l0.7,2l57.7-1.3
	v0.1h0.3c3.7-0.7,14.1-10.8,20.7-20.1c7.8-11,15.9-27.9,10.4-46.2C754.6,359.3,737.6,345.6,721.1,332.3z M533.6,163.2
	c14.3,35.4,15.2,51.8,14.1,58.9l-64.5-113.1C493.7,111.4,516.8,121.6,533.6,163.2z M286.2,391.4c11.2,36.2-0.8,52.5-6,57.6
	L232,349.9c4-2,13.1-5.5,23.1-2C268.2,352.4,278.7,367.1,286.2,391.4z M543,270.4c5.2,17.8,4.6,31.9-1.9,41.8
	c-6,9.2-15.5,12.3-19.5,13.3l-14.7-74.5c0,0,0-0.1,0-0.1c2.2-0.9,4.4-1.5,6.7-2c5.1-1.1,10.4-0.6,15.1,1.5
	C535.2,253.5,540,260.2,543,270.4z M595.2,114.6c4.2,2.3,8.2,4.9,12.1,7.8c9.7,6.9,7,12.1,4.3,17.1c-0.9,1.5-1.6,3.2-1.9,4.9
	L595.2,114.6z M612.2,149.6l39.3,41.7l-16.3,5.9L612.2,149.6z M414.5,116.1l108.2,121.4l-40.4,14.5L414.5,116.1z M373.7,159.4
	l-20,22.4l-21.3-76L373.7,159.4z M205.2,440.1l-46-65.5l39.9-14.3L205.2,440.1z M362.9,446.1c-2.7,1.2-5.8,1.1-8.5-0.2
	c-8-3.6-21.4-17.8-40-64.6c-10.6-26.6-18.1-52.2-19.1-55.5l71.7-25.8C374.5,338.2,387.3,434.7,362.9,446.1L362.9,446.1z
	 M383.2,287.7l-27.7-99l21.8-24.4l75.6,98.3l-26.1,9.4l-0.1-0.2c-1.7,0.6-3.3,1.2-4.9,2L383.2,287.7z M747.7,425.5
	c-7.2,10.6-15.4,17.4-17.7,18.9l-52.9,1.2l-37-104.5l31.6-4.2l-0.8-6l-32.8,4.4l-41.7-117.9l123.9-44.5
	c-12.2,14.2-34.3,43.9-40.6,78.2c-8.9,48.3,14.8,67.4,37.7,85.8c15.8,12.7,32.1,25.9,39,48.9C761,401.3,754.2,416,747.7,425.5z"/>
</svg>
