<svg id="Layer_2" data-name="Layer 2" xmlns="http://www.w3.org/2000/svg" viewBox="0 0 763.85 461.42" aria-labelledby="ea-logo" aria-describedby="logo-desc"><defs><style>.cls-1{fill:#231f20;}</style></defs><title id="ea-logo">Evander Industries</title><desc id="logo-desc">Logo for Evander Industries</desc>desc><path class="cls-1" d="M735.4,383.43c-22.49-18.13-43.73-35.26-35.51-80,7.93-43.17,43.06-79.83,46.85-83.68l21.14-7.6-2-5.64-93.93,33.75-41.87-44.44c.24-.62.75-1.58,1.15-2.33,2.78-5.19,7.94-14.85-6.07-24.86-15-10.74-19.3-11.54-21.88-9.27-1.54,1.35-1.74,3.71-.53,6l41.06,85-37.19,13.37-18.42-37.6,22.14-6.05-1.59-5.79-23.24,6.35-28.64-58.46L582,149l-2.78-5.32-30.35,15.86,52,106.2-33.7,12.11c2.37-7.31,2.82-24.88-13.72-65.79-23.81-58.87-60.12-58.82-61.65-58.79l-5,.11L559.4,280.67l-16.32,5.86L458,150.5l-5.08,3.18L519.38,260,403.32,129.66l87.62,175.61-17.67,6.35L332.55,128.71,391.9,340.86l-40.45,14.53L288,134.12l-5.77,1.66L340.7,339.66,190.81,122.34l-4.94,3.4L345.68,357.46l-185.8,66.77-68.68-153,85.39-37.09-2.39-5.5L88.74,265.79,21.9,116.92,116.35,56.2l-3.24-5.05-98.8,63.52,139.9,311.6L52.43,462.84l2,5.65L108.64,449l17.89,49.21-11.93-.14-.07,6,33.34.38.07-6-15-.17L114.29,447l52.89-19,5.68,77.84,6-.44-5-68.84,53.35,76-7.89-103.31L240,401.8,290.6,505.67l.28,1.39,1.73.53a2.69,2.69,0,0,0,1.41.09c1-.2,2.65-1,5.25-3.64,6.1-6.12,19-24.56,7-63.24-8.16-26.32-19.94-42.31-35-47.52a33.06,33.06,0,0,0-4.29-1.16l37-13.29c3,10.5,32.63,110,62.23,123.57a16.19,16.19,0,0,0,9.89,1.4,15.64,15.64,0,0,0,3.6-1.18c14.69-6.82,20.29-35.13,16.66-84.14A674,674,0,0,0,387.07,349l33.35-12a38.34,38.34,0,0,0-5.32,8.2c-5,10.37-4.8,22.52.47,36.11,5.05,13,13,17.56,20.63,22,10.73,6.15,21.81,12.52,28.19,44.16,6.1,30.27-28.59,53.18-29,53.47h0l1.62,2.52,1.63,2.52a91.23,91.23,0,0,0,18.33-16.62c11.61-13.88,16.23-28.77,13.34-43.08-6.91-34.31-19.75-41.68-31.08-48.19-7.38-4.23-13.74-7.88-18-18.92-4.64-12-4.87-22.5-.68-31.31,4.49-9.45,13.14-14.89,18.29-17.42l26.4-9.49,34.39,178.78,5.89-1.13-34.57-179.7,44.41-16c0,.12,0,.24,0,.36L555.6,506.91l5.89-1.16-22.14-112,67.23,112.52,5.15-3.08L539.27,381.92a37.9,37.9,0,0,0,21.13-15.26c7.51-11.46,8.4-27.22,2.66-46.82-3.47-11.83-9.3-19.8-17.35-23.71a26.64,26.64,0,0,0-5.94-2l36-12.94L628.9,498.84l-6.94-.53-.45,6L644.25,506l.45-6-9.51-.73L581.46,279.11l23.62-8.49,81.44,230.22.72,2.05,57.69-1.32v.11l.31,0c3.72-.72,14.12-10.76,20.74-20.12,7.77-11,15.88-27.94,10.39-46.25C768.91,410.44,751.88,396.71,735.4,383.43ZM547.93,214.32c14.29,35.36,15.17,51.82,14.13,58.9L497.52,160.09C508,162.58,531.12,172.76,547.93,214.32ZM300.55,442.58c11.22,36.2-.77,52.54-6,57.57L246.33,401c4-2.05,13.11-5.51,23.06-2C282.51,403.56,293,418.23,300.55,442.58ZM557.3,321.52c5.21,17.8,4.58,31.86-1.88,41.79-6,9.17-15.54,12.33-19.46,13.27l-14.73-74.5a.08.08,0,0,1,0-.1,36.9,36.9,0,0,1,6.71-2,24,24,0,0,1,15.11,1.54C549.55,304.67,554.33,311.39,557.3,321.52Zm52.26-155.81a108.52,108.52,0,0,1,12.08,7.78c9.73,6.94,7,12.13,4.27,17.14a15.78,15.78,0,0,0-1.93,4.94Zm16.94,35.06,39.26,41.67-16.3,5.86ZM428.79,167.28,537,288.72l-40.35,14.5ZM388,210.57l-20,22.37-21.27-76ZM219.52,491.22l-46-65.52,39.88-14.33Zm157.64,6a9.63,9.63,0,0,1-8.46-.24c-8-3.63-21.36-17.8-40-64.63-10.6-26.65-18.12-52.17-19.09-55.51L381.36,351C388.76,389.4,401.64,485.81,377.16,497.18Zm20.4-158.36-27.7-99,21.82-24.38,75.65,98.34-26.15,9.4-.08-.25a39.25,39.25,0,0,0-4.86,2ZM762,476.69c-7.17,10.6-15.42,17.4-17.7,18.89l-52.87,1.21-37-104.46L686,388.12l-.79-5.95-32.77,4.38L610.73,268.6l123.89-44.52c-12.23,14.23-34.31,43.85-40.63,78.24-8.87,48.28,14.78,67.35,37.65,85.78,15.76,12.71,32.06,25.85,39,48.89C775.26,452.44,768.5,467.11,762,476.69Z" transform="translate(-14.31 -51.15)"/></svg>